version = 1
nColumns = 19
nRows = 27
inDegrees = yes
endheader 
time	r_ground_force_vx	r_ground_force_vy	r_ground_force_vz	r_ground_force_px	r_ground_force_py	r_ground_force_pz	l_ground_force_vx	l_ground_force_vy	l_ground_force_vz	l_ground_force_px	l_ground_force_py	l_ground_force_pz	r_ground_torque_x	r_ground_torque_y	r_ground_torque_z	l_ground_torque_x	l_ground_torque_y	l_ground_torque_z	
          0.23322833	          0.00000000	          0.00000000	          0.00000000	          0.00000000	          0.00000000	          0.00000000	          0.00000000	          0.00000000	          0.00000000	          0.00000000	          0.00000000	          0.00000000	          0.00000000	          0.00000000	          0.00000000	          0.00000000	          0.00000000	          0.00000000	
          0.23395157	          0.00000000	          0.00000000	          0.00000000	          0.00000000	          0.00000000	          0.00000000	          0.00000000	          0.00000000	          0.00000000	          0.00000000	          0.00000000	          0.00000000	          0.00000000	          0.00000000	          0.00000000	          0.00000000	          0.00000000	          0.00000000	
          0.23623673	          0.00000000	          0.00000000	          0.00000000	          0.00000000	          0.00000000	          0.00000000	          0.00000000	          0.00000000	          0.00000000	          0.00000000	          0.00000000	          0.00000000	          0.00000000	          0.00000000	          0.00000000	          0.00000000	          0.00000000	          0.00000000	
          0.23789289	          0.00000000	          0.00000000	          0.00000000	          0.00000000	          0.00000000	          0.00000000	          0.00000000	          0.00000000	          0.00000000	          0.00000000	          0.00000000	          0.00000000	          0.00000000	          0.00000000	          0.00000000	          0.00000000	          0.00000000	          0.00000000	
          0.23861614	          0.00000000	          0.00000000	          0.00000000	          0.00000000	          0.00000000	          0.00000000	          0.00000000	          0.00000000	          0.00000000	          0.00000000	          0.00000000	          0.00000000	          0.00000000	          0.00000000	          0.00000000	          0.00000000	          0.00000000	          0.00000000	
          0.24090130	          0.00000000	          0.00000000	          0.00000000	          0.00000000	          0.00000000	          0.00000000	          0.00000000	          0.00000000	          0.00000000	          0.00000000	          0.00000000	          0.00000000	          0.00000000	          0.00000000	          0.00000000	          0.00000000	          0.00000000	          0.00000000	
          0.24255746	          0.00000000	          0.00000000	          0.00000000	          0.00000000	          0.00000000	          0.00000000	          0.00000000	          0.00000000	          0.00000000	          0.00000000	          0.00000000	          0.00000000	          0.00000000	          0.00000000	          0.00000000	          0.00000000	          0.00000000	          0.00000000	
          0.24328071	          0.00000000	          0.00000000	          0.00000000	          0.00000000	          0.00000000	          0.00000000	          0.00000000	          0.00000000	          0.00000000	          0.00000000	          0.00000000	          0.00000000	          0.00000000	          0.00000000	          0.00000000	          0.00000000	          0.00000000	          0.00000000	
          0.24556587	          0.00000000	          0.00000000	          0.00000000	          0.00000000	          0.00000000	          0.00000000	          0.00000000	          0.00000000	          0.00000000	          0.00000000	          0.00000000	          0.00000000	          0.00000000	          0.00000000	          0.00000000	          0.00000000	          0.00000000	          0.00000000	
          0.24722203	          0.00000000	          0.00000000	          0.00000000	          0.00000000	          0.00000000	          0.00000000	          0.00000000	          0.00000000	          0.00000000	          0.00000000	          0.00000000	          0.00000000	          0.00000000	          0.00000000	          0.00000000	          0.00000000	          0.00000000	          0.00000000	
          0.24794527	          0.00000000	          0.00000000	          0.00000000	          0.00000000	          0.00000000	          0.00000000	          0.00000000	          0.00000000	          0.00000000	          0.00000000	          0.00000000	          0.00000000	          0.00000000	          0.00000000	          0.00000000	          0.00000000	          0.00000000	          0.00000000	
          0.25023043	          0.00000000	          0.00000000	          0.00000000	          0.00000000	          0.00000000	          0.00000000	        -74.34356438	         46.27057809	        -37.32782755	          0.21610633	          0.00000000	          0.08790827	          0.00000000	          0.00000000	          0.00000000	          0.00000000	          0.10741734	          0.00000000	
          0.25188659	          0.00000000	          0.00000000	          0.00000000	          0.00000000	          0.00000000	          0.00000000	       -156.98735959	        108.85968016	        -89.32694719	          0.22800240	          0.00000000	          0.09377292	          0.00000000	          0.00000000	          0.00000000	          0.00000000	          0.77133522	          0.00000000	
          0.25260984	          0.00000000	          0.00000000	          0.00000000	          0.00000000	          0.00000000	          0.00000000	       -241.57012535	        177.99293734	       -153.88236192	          0.23283721	          0.00000000	          0.09577849	          0.00000000	          0.00000000	          0.00000000	          0.00000000	          1.75526149	          0.00000000	
          0.25489500	          0.00000000	          0.00000000	          0.00000000	          0.00000000	          0.00000000	          0.00000000	       -797.99903315	        926.14201882	       -622.25745937	          0.29458877	          0.00000000	          0.11446650	          0.00000000	          0.00000000	          0.00000000	          0.00000000	         22.03583304	          0.00000000	
          0.25655116	          0.00000000	          0.00000000	          0.00000000	          0.00000000	          0.00000000	          0.00000000	      -2712.10644002	       4877.12280620	       -843.35920850	          0.34358245	          0.00000000	          0.12549137	          0.00000000	          0.00000000	          0.00000000	          0.00000000	        173.60699192	          0.00000000	
          0.25727441	          0.00000000	          0.00000000	          0.00000000	          0.00000000	          0.00000000	          0.00000000	      -3038.52037309	       6012.34812615	       -935.84071815	          0.34057447	          0.00000000	          0.12354386	          0.00000000	          0.00000000	          0.00000000	          0.00000000	        204.26721664	          0.00000000	
          0.25955957	          0.00000000	          0.00000000	          0.00000000	          0.00000000	          0.00000000	          0.00000000	       -622.04739104	       5510.24894102	       -597.95733245	          0.29228734	          0.00000000	          0.10862608	          0.00000000	          0.00000000	          0.00000000	          0.00000000	         87.18772307	          0.00000000	
          0.26121573	          0.00000000	          0.00000000	          0.00000000	          0.00000000	          0.00000000	          0.00000000	        -93.75230415	       5559.92515395	       -477.13586245	          0.28524064	          0.00000000	          0.10389765	          0.00000000	          0.00000000	          0.00000000	          0.00000000	         66.87640660	          0.00000000	
          0.26193897	          0.00000000	          0.00000000	          0.00000000	          0.00000000	          0.00000000	          0.00000000	        -79.06122812	       5612.22274191	       -434.37224655	          0.28814098	          0.00000000	          0.10302706	          0.00000000	          0.00000000	          0.00000000	          0.00000000	         61.17078032	          0.00000000	
          0.26422413	          0.00000000	          0.00000000	          0.00000000	          0.00000000	          0.00000000	          0.00000000	       -182.92182981	       5430.55024457	       -305.13742010	          0.30076776	          0.00000000	          0.10068537	          0.00000000	          0.00000000	          0.00000000	          0.00000000	         46.19528583	          0.00000000	
          0.26588029	          0.00000000	          0.00000000	          0.00000000	          0.00000000	          0.00000000	          0.00000000	       -252.00245686	       5103.75638645	       -202.56512110	          0.31109057	          0.00000000	          0.09893077	          0.00000000	          0.00000000	          0.00000000	          0.00000000	         36.02464522	          0.00000000	
          0.26660354	          0.00000000	          0.00000000	          0.00000000	          0.00000000	          0.00000000	          0.00000000	       -261.73909824	       4940.87977216	       -161.76692993	          0.31553862	          0.00000000	          0.09819508	          0.00000000	          0.00000000	          0.00000000	          0.00000000	         31.79201203	          0.00000000	
          0.26888870	          0.00000000	          0.00000000	          0.00000000	          0.00000000	          0.00000000	          0.00000000	       -276.53696955	       4437.84483318	        -58.28381871	          0.32961347	          0.00000000	          0.09645022	          0.00000000	          0.00000000	          0.00000000	          0.00000000	         23.04779352	          0.00000000	
          0.27054486	          0.00000000	          0.00000000	          0.00000000	          0.00000000	          0.00000000	          0.00000000	       -264.20270893	       4098.14556037	         -8.90663213	          0.33962498	          0.00000000	          0.09584968	          0.00000000	          0.00000000	          0.00000000	          0.00000000	         20.08997009	          0.00000000	
          0.27126810	          0.00000000	          0.00000000	          0.00000000	          0.00000000	          0.00000000	          0.00000000	       -258.79434960	       3957.08211984	          5.68432961	          0.34397707	          0.00000000	          0.09577383	          0.00000000	          0.00000000	          0.00000000	          0.00000000	         19.34477221	          0.00000000	
          0.27355327	          0.00000000	          0.00000000	          0.00000000	          0.00000000	          0.00000000	          0.00000000	       -228.07584846	       3523.03821778	         21.32070717	          0.35806672	          0.00000000	          0.09618792	          0.00000000	          0.00000000	          0.00000000	          0.00000000	         16.47258521	          0.00000000	
